<mxfile host="app.diagrams.net" modified="2024-03-26T08:47:04.769Z" agent="Mozilla/5.0 (Macintosh; Intel Mac OS X 10_15_7) AppleWebKit/537.36 (KHTML, like Gecko) Chrome/123.0.0.0 Safari/537.36" etag="70ViByzxdFpqz43VRAK9" version="24.0.7" type="google">
  <diagram name="Page-1" id="Lr4N0x4Q7vtoU2xj8Vv_">
    <mxGraphModel grid="1" page="1" gridSize="10" guides="1" tooltips="1" connect="1" arrows="1" fold="1" pageScale="1" pageWidth="827" pageHeight="1169" math="0" shadow="0">
      <root>
        <mxCell id="0" />
        <mxCell id="1" parent="0" />
        <mxCell id="9FSOEVlf8-kYcISuq5q9-1" value="" style="edgeStyle=orthogonalEdgeStyle;rounded=0;orthogonalLoop=1;jettySize=auto;html=1;endArrow=none;endFill=0;dashed=1;" edge="1" parent="1" target="9FSOEVlf8-kYcISuq5q9-29">
          <mxGeometry relative="1" as="geometry">
            <mxPoint x="1285" y="830" as="targetPoint" />
            <mxPoint x="1284.6134782608701" y="300" as="sourcePoint" />
          </mxGeometry>
        </mxCell>
        <mxCell id="9FSOEVlf8-kYcISuq5q9-2" style="edgeStyle=orthogonalEdgeStyle;rounded=0;orthogonalLoop=1;jettySize=auto;html=1;endArrow=none;endFill=0;dashed=1;" edge="1" parent="1">
          <mxGeometry relative="1" as="geometry">
            <mxPoint x="970" y="760" as="targetPoint" />
            <mxPoint x="970.0000000000002" y="725" as="sourcePoint" />
          </mxGeometry>
        </mxCell>
        <mxCell id="9FSOEVlf8-kYcISuq5q9-3" value="User" style="shape=umlActor;verticalLabelPosition=bottom;verticalAlign=top;html=1;outlineConnect=0;" vertex="1" parent="1">
          <mxGeometry x="955" y="230" width="30" height="60" as="geometry" />
        </mxCell>
        <mxCell id="9FSOEVlf8-kYcISuq5q9-4" value="Application" style="rounded=0;whiteSpace=wrap;html=1;" vertex="1" parent="1">
          <mxGeometry x="1225" y="240" width="120" height="60" as="geometry" />
        </mxCell>
        <mxCell id="9FSOEVlf8-kYcISuq5q9-5" value="Base de données" style="rounded=0;whiteSpace=wrap;html=1;" vertex="1" parent="1">
          <mxGeometry x="1545" y="240" width="120" height="60" as="geometry" />
        </mxCell>
        <mxCell id="9FSOEVlf8-kYcISuq5q9-6" style="edgeStyle=orthogonalEdgeStyle;rounded=0;orthogonalLoop=1;jettySize=auto;html=1;endArrow=none;endFill=0;dashed=1;" edge="1" parent="1" source="9FSOEVlf8-kYcISuq5q9-35">
          <mxGeometry relative="1" as="geometry">
            <mxPoint x="1605" y="760" as="targetPoint" />
            <mxPoint x="1604.61347826087" y="300" as="sourcePoint" />
          </mxGeometry>
        </mxCell>
        <mxCell id="9FSOEVlf8-kYcISuq5q9-8" value="" style="edgeStyle=orthogonalEdgeStyle;rounded=0;orthogonalLoop=1;jettySize=auto;html=1;endArrow=none;endFill=0;dashed=1;" edge="1" parent="1" source="9FSOEVlf8-kYcISuq5q9-29">
          <mxGeometry relative="1" as="geometry">
            <mxPoint x="1285" y="830" as="targetPoint" />
            <mxPoint x="1284.6134782608701" y="300" as="sourcePoint" />
          </mxGeometry>
        </mxCell>
        <mxCell id="9FSOEVlf8-kYcISuq5q9-10" value="" style="endArrow=classic;html=1;rounded=0;" edge="1" parent="1">
          <mxGeometry width="50" height="50" relative="1" as="geometry">
            <mxPoint x="1280" y="540" as="sourcePoint" />
            <mxPoint x="1600" y="540" as="targetPoint" />
          </mxGeometry>
        </mxCell>
        <mxCell id="9FSOEVlf8-kYcISuq5q9-11" value="Envoie&amp;nbsp; données&amp;nbsp;" style="edgeLabel;html=1;align=center;verticalAlign=middle;resizable=0;points=[];" connectable="0" vertex="1" parent="9FSOEVlf8-kYcISuq5q9-10">
          <mxGeometry x="-0.0449" y="2" relative="1" as="geometry">
            <mxPoint as="offset" />
          </mxGeometry>
        </mxCell>
        <mxCell id="9FSOEVlf8-kYcISuq5q9-12" value="Alt" style="shape=umlFrame;whiteSpace=wrap;html=1;pointerEvents=0;" vertex="1" parent="1">
          <mxGeometry x="950" y="560" width="670" height="190" as="geometry" />
        </mxCell>
        <mxCell id="9FSOEVlf8-kYcISuq5q9-13" value="&lt;font style=&quot;font-size: 10px;&quot;&gt;(Patient enregistrer)&lt;/font&gt;" style="text;html=1;align=center;verticalAlign=middle;resizable=0;points=[];autosize=1;strokeColor=none;fillColor=none;" vertex="1" parent="1">
          <mxGeometry x="1015" y="560" width="110" height="30" as="geometry" />
        </mxCell>
        <mxCell id="9FSOEVlf8-kYcISuq5q9-14" value="" style="endArrow=none;html=1;rounded=0;dashed=1;strokeWidth=5;" edge="1" parent="1">
          <mxGeometry width="50" height="50" relative="1" as="geometry">
            <mxPoint x="967" y="640" as="sourcePoint" />
            <mxPoint x="1617" y="640" as="targetPoint" />
          </mxGeometry>
        </mxCell>
        <mxCell id="9FSOEVlf8-kYcISuq5q9-15" value="Créer Patient" style="swimlane;whiteSpace=wrap;html=1;" vertex="1" parent="1">
          <mxGeometry x="920" y="160" width="770" height="680" as="geometry" />
        </mxCell>
        <mxCell id="9FSOEVlf8-kYcISuq5q9-17" value="" style="rounded=0;whiteSpace=wrap;html=1;" vertex="1" parent="9FSOEVlf8-kYcISuq5q9-15">
          <mxGeometry x="360" y="170" width="10" height="70" as="geometry" />
        </mxCell>
        <mxCell id="9FSOEVlf8-kYcISuq5q9-18" value="" style="rounded=0;whiteSpace=wrap;html=1;" vertex="1" parent="9FSOEVlf8-kYcISuq5q9-15">
          <mxGeometry x="360" y="350" width="10" height="40" as="geometry" />
        </mxCell>
        <mxCell id="9FSOEVlf8-kYcISuq5q9-19" value="" style="endArrow=classic;html=1;rounded=0;entryX=0;entryY=0.25;entryDx=0;entryDy=0;" edge="1" parent="9FSOEVlf8-kYcISuq5q9-15">
          <mxGeometry width="50" height="50" relative="1" as="geometry">
            <mxPoint x="50" y="359.54999999999995" as="sourcePoint" />
            <mxPoint x="360" y="359.54999999999995" as="targetPoint" />
          </mxGeometry>
        </mxCell>
        <mxCell id="9FSOEVlf8-kYcISuq5q9-20" value="Remplir le formulaire" style="edgeLabel;html=1;align=center;verticalAlign=middle;resizable=0;points=[];" connectable="0" vertex="1" parent="9FSOEVlf8-kYcISuq5q9-19">
          <mxGeometry x="-0.0825" y="3" relative="1" as="geometry">
            <mxPoint as="offset" />
          </mxGeometry>
        </mxCell>
        <mxCell id="9FSOEVlf8-kYcISuq5q9-21" value="&lt;font style=&quot;font-size: 10px;&quot;&gt;(Tant que le Patient n&#39;est pas crée)&lt;/font&gt;" style="text;html=1;align=center;verticalAlign=middle;resizable=0;points=[];autosize=1;strokeColor=none;fillColor=none;" vertex="1" parent="9FSOEVlf8-kYcISuq5q9-15">
          <mxGeometry x="95" y="200" width="180" height="30" as="geometry" />
        </mxCell>
        <mxCell id="9FSOEVlf8-kYcISuq5q9-22" value="" style="rounded=0;whiteSpace=wrap;html=1;" vertex="1" parent="9FSOEVlf8-kYcISuq5q9-15">
          <mxGeometry x="360" y="410" width="10" height="50" as="geometry" />
        </mxCell>
        <mxCell id="9FSOEVlf8-kYcISuq5q9-23" value="" style="endArrow=none;html=1;rounded=0;dashed=1;endFill=0;startArrow=classicThin;startFill=1;" edge="1" parent="9FSOEVlf8-kYcISuq5q9-15">
          <mxGeometry width="50" height="50" relative="1" as="geometry">
            <mxPoint x="370" y="420" as="sourcePoint" />
            <mxPoint x="680" y="420" as="targetPoint" />
          </mxGeometry>
        </mxCell>
        <mxCell id="9FSOEVlf8-kYcISuq5q9-24" value="Renvoie la reponse&amp;nbsp;" style="edgeLabel;html=1;align=center;verticalAlign=middle;resizable=0;points=[];" connectable="0" vertex="1" parent="9FSOEVlf8-kYcISuq5q9-23">
          <mxGeometry x="-0.0449" y="2" relative="1" as="geometry">
            <mxPoint as="offset" />
          </mxGeometry>
        </mxCell>
        <mxCell id="9FSOEVlf8-kYcISuq5q9-25" value="" style="endArrow=none;html=1;rounded=0;dashed=1;endFill=0;startArrow=classicThin;startFill=1;exitX=1;exitY=0.5;exitDx=0;exitDy=0;" edge="1" parent="9FSOEVlf8-kYcISuq5q9-15" source="9FSOEVlf8-kYcISuq5q9-37">
          <mxGeometry width="50" height="50" relative="1" as="geometry">
            <mxPoint x="60" y="450" as="sourcePoint" />
            <mxPoint x="360" y="450" as="targetPoint" />
          </mxGeometry>
        </mxCell>
        <mxCell id="9FSOEVlf8-kYcISuq5q9-26" value="Envoie message de validation données" style="edgeLabel;html=1;align=center;verticalAlign=middle;resizable=0;points=[];" connectable="0" vertex="1" parent="9FSOEVlf8-kYcISuq5q9-25">
          <mxGeometry x="-0.0449" y="2" relative="1" as="geometry">
            <mxPoint x="9" y="-3" as="offset" />
          </mxGeometry>
        </mxCell>
        <mxCell id="9FSOEVlf8-kYcISuq5q9-27" value="" style="endArrow=none;html=1;rounded=0;dashed=1;endFill=0;startArrow=classicThin;startFill=1;" edge="1" parent="9FSOEVlf8-kYcISuq5q9-15">
          <mxGeometry width="50" height="50" relative="1" as="geometry">
            <mxPoint x="370" y="499.56999999999994" as="sourcePoint" />
            <mxPoint x="680" y="500" as="targetPoint" />
          </mxGeometry>
        </mxCell>
        <mxCell id="9FSOEVlf8-kYcISuq5q9-28" value="Renvoie la reponse&amp;nbsp;" style="edgeLabel;html=1;align=center;verticalAlign=middle;resizable=0;points=[];" connectable="0" vertex="1" parent="9FSOEVlf8-kYcISuq5q9-27">
          <mxGeometry x="-0.0449" y="2" relative="1" as="geometry">
            <mxPoint as="offset" />
          </mxGeometry>
        </mxCell>
        <mxCell id="9FSOEVlf8-kYcISuq5q9-29" value="" style="rounded=0;whiteSpace=wrap;html=1;" vertex="1" parent="9FSOEVlf8-kYcISuq5q9-15">
          <mxGeometry x="360" y="490" width="10" height="50" as="geometry" />
        </mxCell>
        <mxCell id="9FSOEVlf8-kYcISuq5q9-30" value="" style="rounded=0;whiteSpace=wrap;html=1;" vertex="1" parent="9FSOEVlf8-kYcISuq5q9-15">
          <mxGeometry x="46" y="555" width="10" height="10" as="geometry" />
        </mxCell>
        <mxCell id="9FSOEVlf8-kYcISuq5q9-32" value="" style="rounded=0;whiteSpace=wrap;html=1;" vertex="1" parent="9FSOEVlf8-kYcISuq5q9-15">
          <mxGeometry x="45" y="170" width="10" height="70" as="geometry" />
        </mxCell>
        <mxCell id="9FSOEVlf8-kYcISuq5q9-33" value="Appuie sur ajouter Créer nouveau&lt;br&gt;Patient" style="endArrow=classic;html=1;rounded=0;exitX=1;exitY=0.25;exitDx=0;exitDy=0;entryX=0;entryY=0.25;entryDx=0;entryDy=0;" edge="1" parent="9FSOEVlf8-kYcISuq5q9-15" source="9FSOEVlf8-kYcISuq5q9-32" target="9FSOEVlf8-kYcISuq5q9-17">
          <mxGeometry width="50" height="50" relative="1" as="geometry">
            <mxPoint x="50" y="263" as="sourcePoint" />
            <mxPoint x="360" y="263" as="targetPoint" />
          </mxGeometry>
        </mxCell>
        <mxCell id="9FSOEVlf8-kYcISuq5q9-9" value="Loop" style="shape=umlFrame;whiteSpace=wrap;html=1;pointerEvents=0;width=40;height=15;" vertex="1" parent="9FSOEVlf8-kYcISuq5q9-15">
          <mxGeometry x="30" y="200" width="700" height="360" as="geometry" />
        </mxCell>
        <mxCell id="9FSOEVlf8-kYcISuq5q9-46" value="Envoie le formulaire a remplir" style="endArrow=classic;html=1;rounded=0;exitX=0;exitY=1;exitDx=0;exitDy=0;entryX=1;entryY=1;entryDx=0;entryDy=0;" edge="1" parent="9FSOEVlf8-kYcISuq5q9-15" source="9FSOEVlf8-kYcISuq5q9-17" target="9FSOEVlf8-kYcISuq5q9-32">
          <mxGeometry width="50" height="50" relative="1" as="geometry">
            <mxPoint x="210" y="130" as="sourcePoint" />
            <mxPoint x="260" y="80" as="targetPoint" />
          </mxGeometry>
        </mxCell>
        <mxCell id="9FSOEVlf8-kYcISuq5q9-31" value="" style="edgeStyle=orthogonalEdgeStyle;rounded=0;orthogonalLoop=1;jettySize=auto;html=1;endArrow=none;endFill=0;dashed=1;" edge="1" parent="1" target="9FSOEVlf8-kYcISuq5q9-32">
          <mxGeometry relative="1" as="geometry">
            <mxPoint x="970" y="760" as="targetPoint" />
            <mxPoint x="969.61347826087" y="310" as="sourcePoint" />
          </mxGeometry>
        </mxCell>
        <mxCell id="9FSOEVlf8-kYcISuq5q9-34" value="" style="edgeStyle=orthogonalEdgeStyle;rounded=0;orthogonalLoop=1;jettySize=auto;html=1;endArrow=none;endFill=0;dashed=1;" edge="1" parent="1" target="9FSOEVlf8-kYcISuq5q9-35">
          <mxGeometry relative="1" as="geometry">
            <mxPoint x="1605" y="760" as="targetPoint" />
            <mxPoint x="1604.61347826087" y="300" as="sourcePoint" />
          </mxGeometry>
        </mxCell>
        <mxCell id="9FSOEVlf8-kYcISuq5q9-35" value="" style="rounded=0;whiteSpace=wrap;html=1;" vertex="1" parent="1">
          <mxGeometry x="1600" y="530" width="10" height="60" as="geometry" />
        </mxCell>
        <mxCell id="9FSOEVlf8-kYcISuq5q9-36" value="" style="edgeStyle=orthogonalEdgeStyle;rounded=0;orthogonalLoop=1;jettySize=auto;html=1;endArrow=none;endFill=0;dashed=1;" edge="1" parent="1" source="9FSOEVlf8-kYcISuq5q9-32" target="9FSOEVlf8-kYcISuq5q9-37">
          <mxGeometry relative="1" as="geometry">
            <mxPoint x="970" y="760" as="targetPoint" />
            <mxPoint x="970" y="460" as="sourcePoint" />
          </mxGeometry>
        </mxCell>
        <mxCell id="9FSOEVlf8-kYcISuq5q9-37" value="" style="rounded=0;whiteSpace=wrap;html=1;" vertex="1" parent="1">
          <mxGeometry x="965" y="606" width="10" height="10" as="geometry" />
        </mxCell>
        <mxCell id="9FSOEVlf8-kYcISuq5q9-38" value="" style="edgeStyle=orthogonalEdgeStyle;rounded=0;orthogonalLoop=1;jettySize=auto;html=1;endArrow=none;endFill=0;dashed=1;" edge="1" parent="1" source="9FSOEVlf8-kYcISuq5q9-37" target="9FSOEVlf8-kYcISuq5q9-39">
          <mxGeometry relative="1" as="geometry">
            <mxPoint x="970" y="760" as="targetPoint" />
            <mxPoint x="970" y="616" as="sourcePoint" />
          </mxGeometry>
        </mxCell>
        <mxCell id="9FSOEVlf8-kYcISuq5q9-39" value="" style="rounded=0;whiteSpace=wrap;html=1;" vertex="1" parent="1">
          <mxGeometry x="965" y="690" width="10" height="10" as="geometry" />
        </mxCell>
        <mxCell id="9FSOEVlf8-kYcISuq5q9-40" value="" style="endArrow=none;html=1;rounded=0;dashed=1;endFill=0;startArrow=classicThin;startFill=1;exitX=1;exitY=0.5;exitDx=0;exitDy=0;" edge="1" parent="1" source="9FSOEVlf8-kYcISuq5q9-39">
          <mxGeometry width="50" height="50" relative="1" as="geometry">
            <mxPoint x="970" y="695" as="sourcePoint" />
            <mxPoint x="1285" y="694.5699999999999" as="targetPoint" />
          </mxGeometry>
        </mxCell>
        <mxCell id="9FSOEVlf8-kYcISuq5q9-41" value="Affiche la Erreur&amp;nbsp;" style="edgeLabel;html=1;align=center;verticalAlign=middle;resizable=0;points=[];" connectable="0" vertex="1" parent="9FSOEVlf8-kYcISuq5q9-40">
          <mxGeometry x="-0.0449" y="2" relative="1" as="geometry">
            <mxPoint as="offset" />
          </mxGeometry>
        </mxCell>
        <mxCell id="9FSOEVlf8-kYcISuq5q9-42" value="" style="edgeStyle=orthogonalEdgeStyle;rounded=0;orthogonalLoop=1;jettySize=auto;html=1;endArrow=none;endFill=0;dashed=1;" edge="1" parent="1" source="9FSOEVlf8-kYcISuq5q9-39">
          <mxGeometry relative="1" as="geometry">
            <mxPoint x="970.0000000000002" y="715" as="targetPoint" />
            <mxPoint x="970" y="700" as="sourcePoint" />
          </mxGeometry>
        </mxCell>
      </root>
    </mxGraphModel>
  </diagram>
</mxfile>
